<svg width="136" height="53" viewBox="0 0 136 53" fill="none" xmlns="http://www.w3.org/2000/svg">
<rect width="49.1489" height="52.3198" rx="6.24113" fill="#86A1FB"/>
<path d="M12.8013 35.8214L9.5127 42.5302H13.6782L14.4237 40.5132L12.8013 35.8214Z" fill="#FAFAFA"/>
<path d="M14.4237 34.1991L25.5611 9.5127H25.8242L39.6362 42.5302H34.7691L24.421 16.1776L27.4465 14.2044L18.5892 34.1991H14.4237ZM19.817 30.5158H31.6121L33.0152 34.1991H18.5892L19.817 30.5158Z" fill="#FAFAFA"/>
<path d="M57.8491 33L66.724 11.8519H66.8925L75.7393 33H72.6218L65.9938 16.1209L67.9316 14.857L60.5172 33H57.8491ZM63.0448 25.3047H70.5997L71.4984 27.6638H62.2584L63.0448 25.3047ZM81.2488 21.3728L81.4735 24.2094L81.3611 23.76C81.7356 22.8987 82.3441 22.2153 83.1867 21.7098C84.0292 21.1855 85.0028 20.9234 86.1075 20.9234C87.2122 20.9234 88.1109 21.2511 88.8037 21.9064C89.5152 22.543 89.8803 23.3762 89.899 24.406V33H87.259V25.3328C87.2403 24.6962 87.0531 24.1813 86.6973 23.7881C86.3603 23.3762 85.8267 23.1702 85.0965 23.1702C84.4224 23.1702 83.8139 23.3574 83.2709 23.7319C82.7279 24.1064 82.2973 24.6213 81.979 25.2766C81.6794 25.9319 81.5297 26.6902 81.5297 27.5515V33H78.9177V21.3728H81.2488ZM99.272 33.2809C98.186 33.2809 97.1937 33.0468 96.295 32.5787C95.415 32.1106 94.7128 31.4272 94.1886 30.5285C93.683 29.6111 93.4303 28.497 93.4303 27.1864C93.4303 25.8945 93.7018 24.7804 94.2447 23.8443C94.7877 22.8894 95.5086 22.1591 96.4073 21.6536C97.3247 21.1481 98.3264 20.8953 99.4124 20.8953C100.498 20.8953 101.416 21.1481 102.165 21.6536C102.914 22.1404 103.485 22.7209 103.878 23.3949L103.709 23.8443L103.962 21.3728H106.378V33H103.766V29.9668L104.046 30.6409C103.972 30.8281 103.803 31.0715 103.541 31.3711C103.298 31.6519 102.96 31.9421 102.53 32.2417C102.118 32.5413 101.64 32.794 101.098 33C100.555 33.1872 99.946 33.2809 99.272 33.2809ZM99.9741 31.1183C100.629 31.1183 101.219 30.9966 101.743 30.7532C102.268 30.5098 102.698 30.1728 103.035 29.7421C103.391 29.2928 103.635 28.7591 103.766 28.1413V25.8664C103.616 25.3047 103.354 24.8179 102.979 24.406C102.605 23.9753 102.155 23.6477 101.631 23.423C101.107 23.1796 100.526 23.0579 99.8898 23.0579C99.1971 23.0579 98.5605 23.2264 97.9801 23.5634C97.3996 23.9004 96.9315 24.3685 96.5758 24.9677C96.2388 25.5668 96.0703 26.2689 96.0703 27.074C96.0703 27.823 96.2481 28.5064 96.6039 29.1243C96.9596 29.7421 97.4371 30.2289 98.0362 30.5847C98.6354 30.9404 99.2813 31.1183 99.9741 31.1183ZM110.897 11.2621H113.509V33H110.897V11.2621ZM118.028 21.3728H120.64V33H118.028V21.3728ZM117.832 17.16C117.832 16.7481 117.991 16.4017 118.309 16.1209C118.646 15.84 119.011 15.6996 119.405 15.6996C119.798 15.6996 120.144 15.84 120.444 16.1209C120.762 16.4017 120.921 16.7481 120.921 17.16C120.921 17.5906 120.762 17.9464 120.444 18.2272C120.144 18.4894 119.798 18.6204 119.405 18.6204C119.011 18.6204 118.646 18.48 118.309 18.1991C117.991 17.9183 117.832 17.5719 117.832 17.16ZM129.541 25.6979L132.321 21.3728H134.961L130.496 27.6077L129.541 25.6979ZM135.41 33H132.265L123.418 21.3728H126.648L135.41 33ZM129.26 28.6749L126.199 33H123.559L127.996 26.9336L129.26 28.6749Z" fill="black"/>
</svg>
